<?xml version="1.0" standalone="no"?>
<!DOCTYPE svg PUBLIC "-//W3C//DTD SVG 20010904//EN"
 "http://www.w3.org/TR/2001/REC-SVG-20010904/DTD/svg10.dtd">
<svg version="1.0" xmlns="http://www.w3.org/2000/svg"
 width="1080.000000pt" height="1080.000000pt" viewBox="0 0 1080.000000 1080.000000"
 preserveAspectRatio="xMidYMid meet">

<g transform="translate(0.000000,1080.000000) scale(0.100000,-0.100000)"
fill="#2688c9" stroke="none">
<path d="M2664 9734 c-305 -41 -616 -170 -872 -359 -109 -81 -315 -293 -394
-405 -136 -192 -232 -397 -288 -615 -63 -245 -60 -80 -60 -3063 0 -1836 3
-2745 10 -2802 48 -384 207 -739 459 -1027 241 -275 578 -480 936 -572 235
-60 21 -55 2875 -59 1823 -2 2640 0 2720 8 236 22 435 77 645 179 198 96 327
185 484 336 297 286 478 631 553 1055 11 61 13 596 13 2895 l0 2820 -27 126
c-175 808 -805 1388 -1618 1489 -57 7 -932 10 -2710 9 -2165 -1 -2643 -3
-2726 -15z m3396 -2144 l0 -350 -350 0 -350 0 0 350 0 350 350 0 350 0 0 -350z
m-1805 -870 l0 -345 -352 -3 -353 -2 0 350 0 350 353 -2 352 -3 0 -345z m905
0 l0 -350 -352 2 -353 3 -3 348 -2 347 355 0 355 0 0 -350z m900 0 l0 -350
-350 0 -350 0 0 350 0 350 350 0 350 0 0 -350z m1597 -52 c157 -109 315 -292
389 -453 37 -81 74 -218 74 -278 0 -32 3 -37 18 -33 71 21 179 31 342 31 272
-1 408 -32 557 -129 82 -53 81 -37 14 -166 -178 -343 -483 -510 -936 -510
l-130 0 -50 -117 c-113 -270 -313 -631 -468 -849 -216 -303 -469 -565 -736
-763 -247 -182 -564 -337 -856 -420 -692 -195 -1496 -143 -2062 133 -704 344
-1118 1017 -1182 1926 -6 80 -11 164 -11 187 l0 42 2133 4 c2275 4 2209 2
2417 50 110 26 310 105 310 123 0 3 -11 20 -24 37 -39 52 -84 150 -112 244
-35 116 -44 331 -20 469 19 113 58 239 98 319 49 97 131 215 146 210 8 -3 48
-29 89 -57z m-4307 -813 l0 -345 -355 0 -355 0 0 345 0 345 355 0 355 0 0
-345z m910 0 l0 -345 -355 0 -355 0 0 345 0 345 355 0 355 0 0 -345z m900 0
l0 -345 -355 0 -355 0 0 345 0 345 355 0 355 0 0 -345z m900 0 l0 -345 -350 0
-350 0 0 345 0 345 350 0 350 0 0 -345z m910 0 l0 -345 -355 0 -355 0 0 345 0
345 355 0 355 0 0 -345z"/>
</g>
</svg>
